<svg width="1200" height="800" viewBox="0 0 1200 800" fill="none" xmlns="http://www.w3.org/2000/svg">
  <defs>
    <linearGradient id="g1" x1="0" y1="0" x2="1200" y2="800" gradientUnits="userSpaceOnUse">
      <stop stop-color="#111827"/>
      <stop offset="0.5" stop-color="#0EA5A8"/>
      <stop offset="1" stop-color="#22C55E"/>
    </linearGradient>
  </defs>
  <rect width="1200" height="800" rx="48" fill="url(#g1)"/>
  <circle cx="1040" cy="170" r="220" fill="#34D399" fill-opacity="0.16"/>
  <circle cx="160" cy="620" r="220" fill="#67E8F9" fill-opacity="0.12"/>
  <text x="92" y="140" fill="#ECFEFF" font-family="Inter, Arial, sans-serif" font-size="22" font-weight="700" letter-spacing="4">DYNAMIC FAST MIND</text>
  <text x="92" y="290" fill="#ECFEFF" font-family="Inter, Arial, sans-serif" font-size="72" font-weight="800">Face Reading</text>
  <text x="92" y="360" fill="#CCFBF1" font-family="Inter, Arial, sans-serif" font-size="28" font-weight="600">Interpreting features, patterns, and character clues</text>
  <rect x="92" y="520" width="246" height="66" rx="33" fill="#FFFFFF" fill-opacity="0.14" stroke="#ECFEFF" stroke-opacity="0.22"/>
  <text x="129" y="562" fill="#F8FAFC" font-family="Inter, Arial, sans-serif" font-size="24" font-weight="700">Unlock Access</text>
  <path d="M763 512C844 512 910 578 910 659C910 707 871 746 823 746H703C655 746 616 707 616 659C616 578 682 512 763 512Z" fill="#052E2B" fill-opacity="0.45" stroke="#ECFEFF" stroke-opacity="0.16"/>
  <circle cx="762" cy="612" r="76" fill="#F8FAFC" fill-opacity="0.12"/>
  <circle cx="738" cy="598" r="10" fill="#ECFEFF"/>
  <circle cx="786" cy="598" r="10" fill="#ECFEFF"/>
  <path d="M734 634C746 649 778 649 790 634" stroke="#ECFEFF" stroke-width="8" stroke-linecap="round"/>
</svg>