<svg width="1200" height="800" viewBox="0 0 1200 800" fill="none" xmlns="http://www.w3.org/2000/svg">
  <defs>
    <linearGradient id="g1" x1="0" y1="0" x2="1200" y2="800" gradientUnits="userSpaceOnUse">
      <stop stop-color="#111827"/>
      <stop offset="0.52" stop-color="#1D4ED8"/>
      <stop offset="1" stop-color="#8B5CF6"/>
    </linearGradient>
  </defs>
  <rect width="1200" height="800" rx="48" fill="url(#g1)"/>
  <circle cx="1030" cy="150" r="240" fill="#93C5FD" fill-opacity="0.16"/>
  <circle cx="160" cy="630" r="190" fill="#A78BFA" fill-opacity="0.14"/>
  <text x="92" y="140" fill="#EFF6FF" font-family="Inter, Arial, sans-serif" font-size="22" font-weight="700" letter-spacing="4">DYNAMIC FAST MIND</text>
  <text x="92" y="290" fill="#EFF6FF" font-family="Inter, Arial, sans-serif" font-size="66" font-weight="800">Career Test</text>
  <text x="92" y="360" fill="#DBEAFE" font-family="Inter, Arial, sans-serif" font-size="28" font-weight="600">Assess strengths, interests, aptitude, and direction</text>
  <rect x="92" y="520" width="270" height="66" rx="33" fill="#FFFFFF" fill-opacity="0.14" stroke="#EFF6FF" stroke-opacity="0.22"/>
  <text x="126" y="562" fill="#F8FAFC" font-family="Inter, Arial, sans-serif" font-size="24" font-weight="700">Assessment Bundle</text>
  <path d="M742 490C826 490 894 558 894 642C894 693 852 735 801 735H683C632 735 590 693 590 642C590 558 658 490 742 490Z" fill="#0B1023" fill-opacity="0.40" stroke="#EFF6FF" stroke-opacity="0.18"/>
  <rect x="668" y="548" width="150" height="150" rx="26" fill="#EFF6FF" fill-opacity="0.12"/>
  <path d="M704 592H782" stroke="#EFF6FF" stroke-width="14" stroke-linecap="round"/>
  <path d="M704 628H760" stroke="#EFF6FF" stroke-width="14" stroke-linecap="round"/>
  <path d="M704 664H744" stroke="#EFF6FF" stroke-width="14" stroke-linecap="round"/>
</svg>